<svg width="79" height="101" viewBox="0 0 79 101" fill="none" xmlns="http://www.w3.org/2000/svg">
<path fill-rule="evenodd" clip-rule="evenodd" d="M26.555 64.6191L10.3633 92.7279L19.1716 90.2668L21.8918 100.5L38.6016 71.614L26.555 64.6191Z" fill="#CDD1D5"/>
<path fill-rule="evenodd" clip-rule="evenodd" d="M51.0369 64.6191L67.3581 92.7279L58.4203 90.2668L55.7001 100.5L38.9902 71.614L51.0369 64.6191Z" fill="#CDD1D5"/>
<path fill-rule="evenodd" clip-rule="evenodd" d="M73.1865 40.0078L78.886 52.1839L66.7098 58.7902L63.8601 71.8731L49.8705 70.4482L39.3782 79.386L29.0155 70.4482L15.0259 71.8731L12.1762 58.7902L0 52.1839L5.69948 40.0078L0 27.7021L12.1762 21.0959L15.0259 8.01295L29.0155 9.43782L39.3782 0.5L49.8705 9.43782L63.8601 8.01295L66.7098 21.0959L78.886 27.7021L73.1865 40.0078Z" fill="#E3E6E8"/>
<path d="M39.3781 62.0283C51.5399 62.0283 61.3989 52.1693 61.3989 40.0075C61.3989 27.8458 51.5399 17.9868 39.3781 17.9868C27.2164 17.9868 17.3574 27.8458 17.3574 40.0075C17.3574 52.1693 27.2164 62.0283 39.3781 62.0283Z" fill="#CDD1D5"/>
</svg>
