<svg width="40" height="40" viewBox="0 0 40 40" fill="none" xmlns="http://www.w3.org/2000/svg">
<path d="M17.6937 28.1895C17.6937 28.1895 18.4412 20.7912 18.5025 19.5495C17.5188 19.0152 16.85 17.9655 16.85 16.7604C16.85 15.0084 18.26 13.5899 20 13.5899C21.74 13.5899 23.15 15.0084 23.15 16.7604C23.15 17.9693 22.4775 19.0215 21.49 19.5545C21.5525 20.7848 22.3062 28.1882 22.3062 28.1882H17.6937V28.1895ZM33.125 6.49095C32.97 6.49095 32.89 6.48842 32.8088 6.48716L32.6175 6.48337C27.6712 6.34316 23.2375 4.27158 20 1C16.6475 4.39158 12.005 6.49095 6.875 6.49095C6.7225 6.49095 6.57 6.48842 6.41875 6.48463C6.29375 6.48211 6.16875 6.47705 6.04625 6.472C5.67875 6.45432 5.38375 6.43411 5.0925 6.40379L5 6.40632V15.5516C5 25.7895 10.95 34.6278 19.56 38.7495L19.7725 38.8505C19.845 38.8783 19.92 38.8947 20 38.8947C20.0775 38.8947 20.1525 38.8796 20.22 38.8518C28.95 34.7743 35 25.8754 35 15.5516V6.41137C34.9575 6.41137 34.9163 6.41137 34.875 6.40884C34.3 6.46442 33.715 6.49347 33.125 6.49347V6.49095Z" fill="url(#paint0_linear_4507_2054)"/>
<path fill-rule="evenodd" clip-rule="evenodd" d="M18.1788 19.7261C17.17 19.0983 16.5375 17.9855 16.5375 16.7602C16.5375 14.8339 18.0875 13.2739 20 13.2739C21.9125 13.2739 23.4625 14.8339 23.4625 16.7602C23.4625 17.988 22.825 19.1034 21.8125 19.7312C21.8575 20.3589 21.9875 21.78 22.18 23.7531C22.1925 23.8958 22.1925 23.8958 22.2075 24.0373C22.295 24.9568 22.3925 25.9257 22.4888 26.8832L22.5838 27.8053L22.6188 28.1539L22.6538 28.5013H17.3475L17.3825 28.1526L17.4175 27.8053L17.51 26.8857C17.605 25.9295 17.7 24.9619 17.7888 24.0436C17.805 23.8958 17.805 23.8958 17.8188 23.7467C18.0088 21.7737 18.1375 20.3526 18.1813 19.7211L18.1788 19.7261ZM5.09375 6.72189V6.71937H5.1H5.09375V6.72189ZM5.3125 6.74084V15.5526C5.3125 25.4394 10.9825 34.2941 19.6938 38.4663L19.8837 38.5573C19.925 38.5724 19.9625 38.58 20 38.58C20.0375 38.58 20.0712 38.5737 20.09 38.5674C28.9187 34.4419 34.6875 25.5253 34.6875 15.5526V6.7421C34.1625 6.78632 33.6425 6.80779 33.125 6.80779C33.0337 6.80779 32.9825 6.80779 32.885 6.80526H32.805C32.7575 6.80274 32.7575 6.80274 32.7087 6.80274L32.6087 6.80021C27.8125 6.66253 23.3625 4.73242 20 1.44189C16.5125 4.85874 11.8475 6.80779 6.875 6.80779C6.725 6.80779 6.5725 6.80779 6.4125 6.80147C6.305 6.79895 6.22 6.79642 6.0325 6.78884C5.7675 6.77621 5.5325 6.76105 5.3125 6.7421V6.74084Z" stroke="url(#paint1_linear_4507_2054)" stroke-width="0.5"/>
<defs>
<linearGradient id="paint0_linear_4507_2054" x1="20" y1="1" x2="20" y2="38.8947" gradientUnits="userSpaceOnUse">
<stop stop-color="#4DA3FC"/>
<stop offset="1" stop-color="#027EFF"/>
</linearGradient>
<linearGradient id="paint1_linear_4507_2054" x1="19.8906" y1="38.58" x2="19.8906" y2="1.44189" gradientUnits="userSpaceOnUse">
<stop stop-color="#49A1FC"/>
<stop offset="1" stop-color="#0680FF"/>
</linearGradient>
</defs>
</svg>
