<svg width="120" height="121" viewBox="0 0 120 121" fill="none" xmlns="http://www.w3.org/2000/svg">
<rect width="120" height="120" transform="translate(0 0.5)" fill="white"/>
<path d="M20.7344 31.5C20.7344 30.3954 21.6298 29.5 22.7344 29.5H97.2344C98.3389 29.5 99.2344 30.3954 99.2344 31.5V85.5H20.7344V31.5Z" fill="#FBFCFD" stroke="#D8DBDE" stroke-width="4"/>
<path d="M15 88.9971H105C105 91.4824 102.985 93.4971 100.5 93.4971H19.5C17.0147 93.4971 15 91.4824 15 88.9971Z" fill="#D8DBDE"/>
<g clip-path="url(#clip0_4507_10028)">
<path d="M58.4625 63.6263C58.4625 63.6263 58.9608 58.6941 59.0017 57.8663C58.3458 57.5101 57.9 56.8103 57.9 56.0069C57.9 54.8389 58.84 53.8933 60 53.8933C61.16 53.8933 62.1 54.8389 62.1 56.0069C62.1 56.8128 61.6517 57.5143 60.9933 57.8697C61.035 58.6899 61.5375 63.6255 61.5375 63.6255H58.4625V63.6263ZM68.75 49.1606C68.6467 49.1606 68.5933 49.1589 68.5392 49.1581L68.4117 49.1556C65.1142 49.0621 62.1583 47.6811 60 45.5C57.765 47.7611 54.67 49.1606 51.25 49.1606C51.1483 49.1606 51.0467 49.1589 50.9458 49.1564C50.8625 49.1547 50.7792 49.1514 50.6975 49.148C50.4525 49.1362 50.2558 49.1227 50.0617 49.1025L50 49.1042V55.201C50 62.0263 53.9667 67.9185 59.7067 70.6663L59.8483 70.7337C59.8967 70.7522 59.9467 70.7631 60 70.7631C60.0517 70.7631 60.1017 70.753 60.1467 70.7345C65.9667 68.0162 70 62.0836 70 55.201V49.1076C69.9717 49.1076 69.9442 49.1076 69.9167 49.1059C69.5333 49.1429 69.1433 49.1623 68.75 49.1623V49.1606Z" fill="url(#paint0_linear_4507_10028)"/>
<path d="M50.2071 49.4661L50.207 49.3276M50.207 49.3276L50.2619 49.333M50.207 49.3276V55.2021C50.207 61.7932 53.987 67.6964 59.7945 70.4779L59.9212 70.5385C59.9487 70.5486 59.9737 70.5536 59.9987 70.5536C60.0237 70.5536 60.0462 70.5494 60.0587 70.5452C65.9445 67.7949 69.7904 61.8505 69.7904 55.2021V49.3284C69.4404 49.3579 69.0937 49.3722 68.7487 49.3722C68.6879 49.3722 68.6537 49.3722 68.5887 49.3705H68.5354C68.5037 49.3688 68.5037 49.3688 68.4712 49.3688L68.4045 49.3671C65.207 49.2753 62.2404 47.9886 59.9987 45.7949C57.6737 48.0728 54.5637 49.3722 51.2487 49.3722C51.1487 49.3722 51.047 49.3722 50.9404 49.368C50.8687 49.3663 50.812 49.3646 50.687 49.3596C50.5104 49.3511 50.3537 49.341 50.207 49.3284V49.3276ZM58.7845 57.9844C58.112 57.5659 57.6904 56.824 57.6904 56.0071C57.6904 54.7229 58.7237 53.6829 59.9987 53.6829C61.2737 53.6829 62.307 54.7229 62.307 56.0071C62.307 56.8257 61.882 57.5692 61.207 57.9878C61.237 58.4063 61.3237 59.3537 61.452 60.669C61.4604 60.7642 61.4604 60.7642 61.4704 60.8585C61.5287 61.4715 61.5937 62.1174 61.6579 62.7558L61.7212 63.3705L61.7445 63.6029L61.7679 63.8345H58.2304L58.2537 63.6021L58.277 63.3705L58.3387 62.7574C58.402 62.12 58.4654 61.4749 58.5245 60.8627C58.5354 60.7642 58.5354 60.7642 58.5445 60.6648C58.6712 59.3494 58.757 58.4021 58.7862 57.981L58.7845 57.9844Z" stroke="url(#paint1_linear_4507_10028)" stroke-width="0.5"/>
</g>
<defs>
<linearGradient id="paint0_linear_4507_10028" x1="60" y1="45.5" x2="60" y2="70.7631" gradientUnits="userSpaceOnUse">
<stop stop-color="#4DA3FC"/>
<stop offset="1" stop-color="#027EFF"/>
</linearGradient>
<linearGradient id="paint1_linear_4507_10028" x1="59.9258" y1="70.5536" x2="59.9258" y2="45.7949" gradientUnits="userSpaceOnUse">
<stop stop-color="#49A1FC"/>
<stop offset="1" stop-color="#0680FF"/>
</linearGradient>
<clipPath id="clip0_4507_10028">
<rect width="20" height="25.2631" fill="white" transform="translate(50 45.5)"/>
</clipPath>
</defs>
</svg>
