<svg width="120" height="120" viewBox="0 0 120 120" fill="none" xmlns="http://www.w3.org/2000/svg">
<path d="M101.606 108.463L101.923 108.85L101.924 108.849L101.606 108.463ZM93.125 108.213L92.7744 108.569L92.7744 108.569L93.125 108.213ZM77.5312 92.6188L77.8798 92.2602L77.879 92.2595L77.5312 92.6188ZM76.3562 85.1937L76.7983 85.4274L76.9707 85.1011L76.7098 84.8402L76.3562 85.1937ZM69.225 78.0625L69.5786 77.7089L69.2798 77.4101L68.9353 77.655L69.225 78.0625ZM78.0625 69.225L77.655 68.9353L77.4101 69.2798L77.7089 69.5786L78.0625 69.225ZM85.1937 76.3562L84.8402 76.7098L85.1011 76.9707L85.4274 76.7983L85.1937 76.3562ZM92.5938 77.5062L92.2364 77.8559L92.2382 77.8578L92.5938 77.5062ZM108.2 93.1125L107.844 93.4631L107.844 93.4641L108.2 93.1125ZM47.5 18.875C31.6926 18.875 18.875 31.6926 18.875 47.5H19.875C19.875 32.2449 32.2449 19.875 47.5 19.875V18.875ZM18.875 47.5C18.875 63.3074 31.6926 76.125 47.5 76.125V75.125C32.2449 75.125 19.875 62.7551 19.875 47.5H18.875ZM47.5 76.125C63.3074 76.125 76.125 63.3074 76.125 47.5H75.125C75.125 62.7551 62.7551 75.125 47.5 75.125V76.125ZM76.125 47.5C76.125 31.6926 63.3074 18.875 47.5 18.875V19.875C62.7551 19.875 75.125 32.2449 75.125 47.5H76.125ZM108.518 100.712C105.937 104.035 104.552 105.397 101.289 108.076L101.924 108.849C105.236 106.128 106.675 104.715 109.307 101.325L108.518 100.712ZM101.29 108.075C100.237 108.935 98.9391 109.5 97.5 109.5V110.5C99.2109 110.5 100.726 109.827 101.923 108.85L101.29 108.075ZM97.5 109.5C95.9357 109.5 94.5103 108.873 93.4756 107.856L92.7744 108.569C93.9897 109.764 95.6643 110.5 97.5 110.5V109.5ZM93.4757 107.856C92.3359 106.735 78.9934 93.3428 77.8798 92.2602L77.1827 92.9773C78.3066 94.0697 91.6016 107.415 92.7744 108.569L93.4757 107.856ZM77.879 92.2595C76.7971 91.2121 76.125 89.7463 76.125 88.125H75.125C75.125 90.0287 75.9154 91.7504 77.1835 92.978L77.879 92.2595ZM76.125 88.125C76.125 87.1482 76.3718 86.2343 76.7983 85.4274L75.9142 84.9601C75.4157 85.9032 75.125 86.9768 75.125 88.125H76.125ZM76.7098 84.8402L69.5786 77.7089L68.8714 78.4161L76.0027 85.5473L76.7098 84.8402ZM68.9353 77.655C62.8791 81.9597 55.4921 84.5 47.5 84.5V85.5C55.7079 85.5 63.2959 82.8903 69.5147 78.47L68.9353 77.655ZM47.5 84.5C27.0699 84.5 10.5 67.9301 10.5 47.5H9.5C9.5 68.4824 26.5176 85.5 47.5 85.5V84.5ZM10.5 47.5C10.5 27.0699 27.0699 10.5 47.5 10.5V9.5C26.5176 9.5 9.5 26.5176 9.5 47.5H10.5ZM47.5 10.5C67.9301 10.5 84.5 27.0699 84.5 47.5H85.5C85.5 26.5176 68.4824 9.5 47.5 9.5V10.5ZM84.5 47.5C84.5 55.4921 81.9597 62.8791 77.655 68.9353L78.47 69.5147C82.8903 63.2959 85.5 55.7079 85.5 47.5H84.5ZM77.7089 69.5786L84.8402 76.7098L85.5473 76.0027L78.4161 68.8714L77.7089 69.5786ZM85.4274 76.7983C86.2343 76.3718 87.1482 76.125 88.125 76.125V75.125C86.9768 75.125 85.9032 75.4157 84.9601 75.9142L85.4274 76.7983ZM88.125 76.125C89.735 76.125 91.189 76.7855 92.2364 77.8559L92.9511 77.1566C91.7235 75.902 90.015 75.125 88.125 75.125V76.125ZM92.2382 77.8578C93.3577 78.9899 106.706 92.3068 107.844 93.4631L108.556 92.7619C107.431 91.6182 94.0423 78.2601 92.9493 77.1547L92.2382 77.8578ZM107.844 93.4641C108.874 94.5048 109.5 95.9296 109.5 97.5H110.5C110.5 95.6579 109.764 93.9827 108.556 92.7609L107.844 93.4641ZM109.5 97.5C109.5 98.7243 109.177 99.8639 108.518 100.712L109.307 101.326C110.135 100.261 110.5 98.8882 110.5 97.5H109.5Z" fill="#D8DBDE"/>
</svg>
