<svg width="120" height="120" viewBox="0 0 120 120" fill="none" xmlns="http://www.w3.org/2000/svg">
<rect width="120" height="120" fill="white"/>
<g clip-path="url(#clip0_4507_10167)">
<path d="M58.4625 65.1263C58.4625 65.1263 58.9608 60.1941 59.0017 59.3663C58.3458 59.0101 57.9 58.3103 57.9 57.5069C57.9 56.3389 58.84 55.3933 60 55.3933C61.16 55.3933 62.1 56.3389 62.1 57.5069C62.1 58.3128 61.6517 59.0143 60.9933 59.3697C61.035 60.1899 61.5375 65.1255 61.5375 65.1255H58.4625V65.1263ZM68.75 50.6606C68.6467 50.6606 68.5933 50.6589 68.5392 50.6581L68.4117 50.6556C65.1142 50.5621 62.1583 49.1811 60 47C57.765 49.2611 54.67 50.6606 51.25 50.6606C51.1483 50.6606 51.0467 50.6589 50.9458 50.6564C50.8625 50.6547 50.7792 50.6514 50.6975 50.648C50.4525 50.6362 50.2558 50.6227 50.0617 50.6025L50 50.6042V56.701C50 63.5263 53.9667 69.4185 59.7067 72.1663L59.8483 72.2337C59.8967 72.2522 59.9467 72.2631 60 72.2631C60.0517 72.2631 60.1017 72.253 60.1467 72.2345C65.9667 69.5162 70 63.5836 70 56.701V50.6076C69.9717 50.6076 69.9442 50.6076 69.9167 50.6059C69.5333 50.6429 69.1433 50.6623 68.75 50.6623V50.6606Z" fill="url(#paint0_linear_4507_10167)"/>
<path d="M50.2071 50.9661L50.207 50.8276M50.207 50.8276L50.2619 50.833M50.207 50.8276V56.7021C50.207 63.2932 53.987 69.1964 59.7945 71.9779L59.9212 72.0385C59.9487 72.0486 59.9737 72.0536 59.9987 72.0536C60.0237 72.0536 60.0462 72.0494 60.0587 72.0452C65.9445 69.2949 69.7904 63.3505 69.7904 56.7021V50.8284C69.4404 50.8579 69.0937 50.8722 68.7487 50.8722C68.6879 50.8722 68.6537 50.8722 68.5887 50.8705H68.5354C68.5037 50.8688 68.5037 50.8688 68.4712 50.8688L68.4045 50.8671C65.207 50.7753 62.2404 49.4886 59.9987 47.2949C57.6737 49.5728 54.5637 50.8722 51.2487 50.8722C51.1487 50.8722 51.047 50.8722 50.9404 50.868C50.8687 50.8663 50.812 50.8646 50.687 50.8596C50.5104 50.8511 50.3537 50.841 50.207 50.8284V50.8276ZM58.7845 59.4844C58.112 59.0659 57.6904 58.324 57.6904 57.5071C57.6904 56.2229 58.7237 55.1829 59.9987 55.1829C61.2737 55.1829 62.307 56.2229 62.307 57.5071C62.307 58.3257 61.882 59.0692 61.207 59.4878C61.237 59.9063 61.3237 60.8537 61.452 62.169C61.4604 62.2642 61.4604 62.2642 61.4704 62.3585C61.5287 62.9715 61.5937 63.6174 61.6579 64.2558L61.7212 64.8705L61.7445 65.1029L61.7679 65.3345H58.2304L58.2537 65.1021L58.277 64.8705L58.3387 64.2574C58.402 63.62 58.4654 62.9749 58.5245 62.3627C58.5354 62.2642 58.5354 62.2642 58.5445 62.1648C58.6712 60.8494 58.757 59.9021 58.7862 59.481L58.7845 59.4844Z" stroke="url(#paint1_linear_4507_10167)" stroke-width="0.5"/>
</g>
<path d="M22.6148 43.852C22.8092 44.3689 23.3859 44.6304 23.9028 44.436L32.3268 41.2679C32.8437 41.0735 33.1052 40.4968 32.9107 39.9799C32.7163 39.463 32.1397 39.2015 31.6227 39.3959L24.1348 42.212L21.3187 34.724C21.1243 34.2071 20.5476 33.9456 20.0307 34.14C19.5137 34.3344 19.2523 34.9111 19.4467 35.428L22.6148 43.852ZM59.9999 21C81.539 21 98.9999 38.4609 98.9999 60H101C101 37.3563 82.6435 19 59.9999 19V21ZM24.4615 43.9129C30.5895 30.3976 44.1983 21 59.9999 21V19C43.3848 19 29.0801 28.8831 22.64 43.0871L24.4615 43.9129Z" fill="#D8DBDE"/>
<path d="M97.3852 76.148C97.1908 75.6311 96.6141 75.3696 96.0972 75.564L87.6732 78.7321C87.1563 78.9265 86.8948 79.5032 87.0893 80.0201C87.2837 80.537 87.8603 80.7985 88.3773 80.6041L95.8652 77.788L98.6813 85.276C98.8757 85.7929 99.4524 86.0544 99.9693 85.86C100.486 85.6656 100.748 85.0889 100.553 84.572L97.3852 76.148ZM60.0001 99C38.461 99 21.0001 81.5391 21.0001 60H19.0001C19.0001 82.6437 37.3565 101 60.0001 101V99ZM95.5385 76.0871C89.4105 89.6024 75.8017 99 60.0001 99V101C76.6152 101 90.9199 91.1169 97.36 76.9129L95.5385 76.0871Z" fill="#D8DBDE"/>
<defs>
<linearGradient id="paint0_linear_4507_10167" x1="60" y1="47" x2="60" y2="72.2631" gradientUnits="userSpaceOnUse">
<stop stop-color="#4DA3FC"/>
<stop offset="1" stop-color="#027EFF"/>
</linearGradient>
<linearGradient id="paint1_linear_4507_10167" x1="59.9258" y1="72.0536" x2="59.9258" y2="47.2949" gradientUnits="userSpaceOnUse">
<stop stop-color="#49A1FC"/>
<stop offset="1" stop-color="#0680FF"/>
</linearGradient>
<clipPath id="clip0_4507_10167">
<rect width="20" height="25.2631" fill="white" transform="translate(50 47)"/>
</clipPath>
</defs>
</svg>
