<svg width="82" height="23" viewBox="0 0 82 23" fill="none" xmlns="http://www.w3.org/2000/svg">
<g clip-path="url(#clip0_2620_2193)">
<path d="M7.36942 15.785C7.36942 15.785 7.80339 11.4899 7.83894 10.769C7.26782 10.4588 6.87958 9.8494 6.87958 9.1498C6.87958 8.13267 7.69816 7.30913 8.70833 7.30913C9.71849 7.30913 10.5371 8.13267 10.5371 9.1498C10.5371 9.8516 10.1467 10.4625 9.57335 10.7719C9.60964 11.4862 10.0472 15.7843 10.0472 15.7843H7.36942V15.785ZM16.3281 3.1878C16.2381 3.1878 16.1917 3.18633 16.1445 3.1856L16.0335 3.1834C13.1619 3.102 10.5879 1.89933 8.70833 0C6.76202 1.969 4.06679 3.1878 1.08854 3.1878C1.00001 3.1878 0.911471 3.18633 0.823663 3.18413C0.751093 3.18267 0.678524 3.17973 0.607406 3.1768C0.394052 3.16653 0.222788 3.1548 0.0537013 3.1372L0 3.13867V8.448C0 14.3917 3.4543 19.5228 8.45288 21.9157L8.57625 21.9743C8.61834 21.9905 8.66188 22 8.70833 22C8.75332 22 8.79686 21.9912 8.83605 21.9751C13.9043 19.6079 17.4167 14.4415 17.4167 8.448V3.1416C17.392 3.1416 17.368 3.1416 17.3441 3.14013C17.0103 3.1724 16.6706 3.18927 16.3281 3.18927V3.1878Z" fill="url(#paint0_linear_2620_2193)"/>
<path d="M0.181416 3.4536L0.181396 3.33299M0.181396 3.33299L0.229149 3.3377M0.181396 3.33299V8.44872C0.181396 14.1885 3.47314 19.3292 8.5305 21.7514L8.64081 21.8042C8.66476 21.813 8.68653 21.8174 8.7083 21.8174C8.73007 21.8174 8.74966 21.8137 8.76055 21.8101C13.8861 19.415 17.2352 14.2384 17.2352 8.44872V3.33372C16.9304 3.35939 16.6285 3.37185 16.3281 3.37185C16.2751 3.37185 16.2454 3.37185 16.1888 3.37039H16.1423C16.1147 3.36892 16.1147 3.36892 16.0864 3.36892L16.0284 3.36745C13.2439 3.28752 10.6604 2.16699 8.7083 0.256653C6.68361 2.24032 3.97532 3.37185 1.08851 3.37185C1.00143 3.37185 0.912896 3.37185 0.820007 3.36819C0.757597 3.36672 0.70825 3.36525 0.599396 3.36085C0.445549 3.35352 0.309119 3.34472 0.181396 3.33372V3.33299ZM7.65096 10.8717C7.06533 10.5072 6.69813 9.86112 6.69813 9.14978C6.69813 8.03145 7.59799 7.12579 8.7083 7.12579C9.81861 7.12579 10.7185 8.03145 10.7185 9.14978C10.7185 9.86258 10.3484 10.5101 9.76056 10.8746C9.78668 11.2391 9.86215 12.0641 9.97391 13.2095C9.98117 13.2924 9.98117 13.2924 9.98987 13.3745C10.0407 13.9084 10.0973 14.4709 10.1532 15.0267L10.2083 15.5621L10.2286 15.7645L10.2489 15.9661H7.16838L7.1887 15.7637L7.20902 15.5621L7.26272 15.0282C7.31787 14.4731 7.37302 13.9113 7.42455 13.3782C7.43398 13.2924 7.43398 13.2924 7.44196 13.2059C7.55227 12.0604 7.62702 11.2354 7.65241 10.8687L7.65096 10.8717Z" stroke="url(#paint1_linear_2620_2193)" stroke-width="0.5"/>
</g>
<path d="M33.5681 4.01043V5.5915C31.9183 5.45402 31.0934 6.14144 31.0934 7.72252V7.99749H33.5681V9.50982H31.0934V17.209H29.5123V9.50982H28V7.99749H29.5123V7.72252C29.5123 6.48515 29.856 5.52276 30.5435 4.90408C31.2309 4.21665 32.262 3.94168 33.5681 4.01043Z" fill="#293033"/>
<path d="M43.1234 9.16591C42.161 8.20352 40.9924 7.72232 39.6863 7.72232C38.3801 7.72232 37.1428 8.20352 36.2491 9.16591C35.2867 10.1283 34.8055 11.2969 34.8055 12.603C34.8055 13.9091 35.2867 15.1465 36.2491 16.0402C37.2115 17.0025 38.3801 17.4837 39.6863 17.4837C40.9924 17.4837 42.2297 17.0025 43.1234 16.0402C44.0858 15.0778 44.567 13.9091 44.567 12.603C44.567 11.2282 44.0858 10.1283 43.1234 9.16591ZM41.9548 15.009C41.3361 15.6277 40.5112 15.9714 39.6175 15.9714C38.7239 15.9714 37.899 15.6277 37.2803 15.009C36.6616 14.3903 36.3179 13.5654 36.3179 12.6718C36.3179 11.7094 36.6616 10.9532 37.2803 10.3345C37.899 9.71585 38.6551 9.37214 39.6175 9.37214C40.5112 9.37214 41.3361 9.71585 41.9548 10.3345C42.5734 10.9532 42.9171 11.7781 42.9171 12.6718C42.9171 13.5654 42.5734 14.3216 41.9548 15.009Z" fill="#293033"/>
<path d="M48.6227 7.99727V9.50961C49.1726 8.34099 50.135 7.79105 51.5099 7.79105V9.50961C50.685 9.44086 50.0663 9.71583 49.4476 10.1283C48.8977 10.6095 48.6227 11.2969 48.6227 12.328V17.2775H47.0416V7.99727H48.6227Z" fill="#293033"/>
<path d="M59.0716 7.99734V9.50968H56.5969V14.5279C56.5969 15.0091 56.6657 15.284 56.8719 15.4903C57.0781 15.6965 57.3531 15.7652 57.6968 15.7652C58.0405 15.7652 58.5217 15.7652 59.0716 15.7652V17.2088C57.628 17.4151 56.5969 17.2776 55.9782 16.8651C55.3595 16.4527 55.0158 15.6965 55.0158 14.5279V9.50968H53.1598V7.99734H55.0158V5.86633L56.5969 5.38513V7.99734H59.0716Z" fill="#293033"/>
<path d="M62.0962 6.27874C61.7525 6.27874 61.5463 6.14125 61.3401 5.93502C61.1338 5.7288 60.9963 5.45383 60.9963 5.17886C60.9963 4.90389 61.1338 4.62892 61.3401 4.42269C61.5463 4.21646 61.8212 4.07898 62.0962 4.07898C62.3712 4.07898 62.6462 4.21646 62.8524 4.42269C63.0586 4.62892 63.1961 4.90389 63.1961 5.17886C63.1961 5.45383 63.0586 5.7288 62.8524 5.93502C62.6462 6.20999 62.4399 6.27874 62.0962 6.27874Z" fill="#293033"/>
<path d="M62.9212 7.99728H61.3401V17.2775H62.9212V7.99728Z" fill="#293033"/>
<path d="M70.5515 4.01024V5.59132C68.9017 5.45383 68.0768 6.14126 68.0768 7.72233V7.9973H70.5515V9.50964H68.0768V17.2088H66.4957V9.50964H64.9834V7.9973H66.4957V7.72233C66.4957 6.48497 66.8394 5.52258 67.5269 4.9039C68.283 4.21647 69.3142 3.9415 70.5515 4.01024Z" fill="#293033"/>
<path d="M76.8071 15.284L79.4881 7.99728H81.2066L77.4258 17.8274C77.0133 18.8586 76.4634 19.6835 75.776 20.2334C75.0885 20.7834 74.2636 21.0583 73.3012 20.9896V19.4773C74.4699 19.546 75.2948 18.9273 75.776 17.5525L75.9134 17.2088L71.9264 7.99728H73.645L76.8071 15.284Z" fill="#293033"/>
<defs>
<linearGradient id="paint0_linear_2620_2193" x1="8.70833" y1="0" x2="8.70833" y2="22" gradientUnits="userSpaceOnUse">
<stop stop-color="#4DA3FC"/>
<stop offset="1" stop-color="#027EFF"/>
</linearGradient>
<linearGradient id="paint1_linear_2620_2193" x1="8.64482" y1="21.8174" x2="8.64482" y2="0.256653" gradientUnits="userSpaceOnUse">
<stop stop-color="#49A1FC"/>
<stop offset="1" stop-color="#0680FF"/>
</linearGradient>
<clipPath id="clip0_2620_2193">
<rect width="17.4167" height="22" fill="white"/>
</clipPath>
</defs>
</svg>
