<svg width="78" height="22" fill="none" xmlns="http://www.w3.org/2000/svg">
  <g clip-path="url(#clip0)">
    <path d="M7.012 15.099s.413-4.109.447-4.798a1.762 1.762 0 01-.913-1.549c0-.973.78-1.76 1.74-1.76.962 0 1.74.787 1.74 1.76 0 .671-.371 1.256-.917 1.552.035.683.451 4.794.451 4.794H7.012zm8.525-12.05l-.175-.002-.105-.002A10.15 10.15 0 018.287 0 10.137 10.137 0 01.05 3L0 3.003v5.079c0 5.685 3.287 10.593 8.043 12.882l.118.056a.317.317 0 00.247 0c4.823-2.264 8.165-7.205 8.165-12.938V3.005l-.07-.001c-.317.03-.64.047-.966.047v-.002z" fill="url(#paint0_linear)"/>
    <path clip-rule="evenodd" d="M7.28 10.399a1.94 1.94 0 01-.906-1.647c0-1.07.856-1.936 1.912-1.936 1.057 0 1.913.866 1.913 1.936 0 .682-.352 1.301-.911 1.65.024.348.096 1.138.203 2.233l.015.158c.048.51.102 1.049.155 1.58l.053.512.019.194.02.193H6.82l.02-.194.019-.193.05-.51c.053-.531.106-1.069.155-1.579l.016-.164c.105-1.096.176-1.885.2-2.236v.003zM.052 3.178v-.002h.003-.003v.002zm.12.01v4.893c0 5.49 3.133 10.408 7.945 12.725l.105.05a.183.183 0 00.114.006c4.877-2.291 8.064-7.243 8.064-12.78V3.188c-.29.024-.577.036-.863.036l-.133-.001h-.044c-.026-.002-.026-.002-.053-.002l-.055-.001A10.314 10.314 0 018.286.246a10.298 10.298 0 01-7.25 2.98c-.083 0-.167 0-.256-.004a10.753 10.753 0 01-.607-.033v0z" stroke="url(#paint1_linear)" stroke-width=".5"/>
  </g>
  <path d="M31.942 3.836v1.512c-1.57-.131-2.355.526-2.355 2.039v.263h2.355v1.446h-2.355v7.365h-1.505V9.096h-1.439V7.65h1.44v-.263c0-1.184.326-2.104.98-2.696.655-.658 1.636-.92 2.879-.855zM41.034 8.767c-.916-.92-2.028-1.38-3.27-1.38-1.244 0-2.421.46-3.271 1.38-.916.92-1.374 2.039-1.374 3.288 0 1.25.458 2.433 1.374 3.288.915.92 2.027 1.38 3.27 1.38 1.243 0 2.42-.46 3.27-1.38.917-.92 1.374-2.039 1.374-3.288 0-1.315-.457-2.367-1.373-3.288zm-1.112 5.59a3.107 3.107 0 01-2.224.92c-.85 0-1.636-.329-2.224-.92a3.14 3.14 0 01-.916-2.236c0-.92.327-1.644.916-2.236.589-.592 1.308-.92 2.224-.92.85 0 1.635.328 2.224.92a3.14 3.14 0 01.916 2.236c0 .855-.328 1.578-.916 2.235zM46.267 7.65v1.446c.523-1.118 1.439-1.644 2.747-1.644v1.644c-.785-.066-1.374.197-1.962.592-.524.46-.785 1.118-.785 2.104v4.734h-1.505V7.65h1.505zM56.21 7.65v1.446h-2.355v4.8c0 .46.065.723.261.92.196.198.458.264.785.264h1.308v1.38c-1.373.198-2.354.066-2.943-.328-.589-.395-.916-1.118-.916-2.236v-4.8h-1.766V7.65h1.766V5.61l1.505-.46V7.65h2.354zM59.087 6.006c-.327 0-.523-.132-.719-.329-.196-.197-.327-.46-.327-.723 0-.263.13-.526.327-.724.196-.197.458-.328.72-.328.261 0 .523.131.719.328.196.198.327.46.327.724 0 .263-.13.526-.327.723-.196.263-.393.329-.72.329zM59.872 7.65h-1.504v8.876h1.504V7.65zM67.133 3.836v1.512c-1.57-.131-2.355.526-2.355 2.039v.263h2.355v1.446h-2.355v7.365h-1.504V9.096h-1.44V7.65h1.44v-.263c0-1.184.327-2.105.98-2.696.72-.658 1.702-.92 2.88-.855zM73.085 14.62l2.552-6.97h1.635l-3.598 9.402c-.392.987-.916 1.776-1.57 2.302s-1.439.789-2.355.723V18.63c1.113.066 1.898-.526 2.355-1.84l.131-.33-3.794-8.81h1.636l3.008 6.97z" fill="#40484F"/>
  <defs>
    <linearGradient id="paint0_linear" x1="8.286" y1="0" x2="8.286" y2="21.044" gradientUnits="userSpaceOnUse">
      <stop stop-color="#4DA3FC"/>
      <stop offset="1" stop-color="#027EFF"/>
    </linearGradient>
    <linearGradient id="paint1_linear" x1="8.226" y1="20.869" x2="8.226" y2=".246" gradientUnits="userSpaceOnUse">
      <stop stop-color="#49A1FC"/>
      <stop offset="1" stop-color="#0680FF"/>
    </linearGradient>
    <clipPath id="clip0">
      <path d="M0 0h16.573v21.044H0V0z" fill="#fff"/>
    </clipPath>
  </defs>
</svg>